mtllib ./Cube_0_0.mtl
g Cube
v -0.55 2.539 -0.15
v -0.75 2.639 -0.15
v -0.55 2.552397 -0.1
v -0.55 2.552397 -0.1
v -0.75 2.639 -0.15
v -0.55 2.589 -0.06339747
v -0.55 2.589 -0.06339747
v -0.75 2.639 -0.15
v -0.55 2.639 -0.05000001
v -0.55 2.639 -0.05000001
v -0.75 2.639 -0.15
v -0.55 2.689 -0.06339746
v -0.55 2.689 -0.06339746
v -0.75 2.639 -0.15
v -0.55 2.725603 -0.09999999
v -0.55 2.725603 -0.09999999
v -0.75 2.639 -0.15
v -0.55 2.739 -0.15
v -0.55 2.739 -0.15
v -0.75 2.639 -0.15
v -0.55 2.725603 -0.2
v -0.55 2.725603 -0.2
v -0.75 2.639 -0.15
v -0.55 2.689 -0.2366025
v -0.55 2.689 -0.2366025
v -0.75 2.639 -0.15
v -0.55 2.639 -0.25
v -0.55 2.639 -0.25
v -0.75 2.639 -0.15
v -0.55 2.589 -0.2366025
v -0.55 2.589 -0.2366025
v -0.75 2.639 -0.15
v -0.55 2.552397 -0.2
v -0.55 2.552397 -0.2
v -0.75 2.639 -0.15
v -0.55 2.539 -0.15
v -0.55 2.552397 -0.2
v -0.55 2.539 -0.15
v -0.55 2.552397 -0.1
v -0.55 2.589 -0.2366025
v -0.55 2.589 -0.06339747
v -0.55 2.639 -0.25
v -0.55 2.639 -0.05000001
v -0.55 2.689 -0.2366025
v -0.55 2.689 -0.06339746
v -0.55 2.725603 -0.2
v -0.55 2.725603 -0.09999999
v -0.55 2.739 -0.15
v -0.3883455 2.674012 -0.1999778
v -0.390291 2.59421 -0.1946952
v -0.3873138 2.599375 -0.1155705
v -0.3853683 2.679177 -0.1208531
v -0.5566047 2.603904 -0.1094962
v -0.5595819 2.598739 -0.1886209
v -0.5576364 2.678541 -0.1939035
v -0.5546592 2.683706 -0.1147788
v -0.3873138 2.599375 -0.1155705
v -0.390291 2.59421 -0.1946952
v -0.5595819 2.598739 -0.1886209
v -0.5566047 2.603904 -0.1094962
v -0.5576364 2.678541 -0.1939035
v -0.3883455 2.674012 -0.1999778
v -0.3853683 2.679177 -0.1208531
v -0.5546592 2.683706 -0.1147788
v -0.5595819 2.598739 -0.1886209
v -0.390291 2.59421 -0.1946952
v -0.3883455 2.674012 -0.1999778
v -0.5576364 2.678541 -0.1939035
v -0.3853683 2.679177 -0.1208531
v -0.3873138 2.599375 -0.1155705
v -0.5566047 2.603904 -0.1094962
v -0.5546592 2.683706 -0.1147788

vn -0.4348981 -0.8697966 0.2330612
vn -0.4348981 -0.8697966 0.2330612
vn -0.4348981 -0.8697966 0.2330612
vn -0.4348982 -0.6367354 0.636735
vn -0.4348982 -0.6367354 0.636735
vn -0.4348982 -0.6367354 0.636735
vn -0.4348983 -0.2330615 0.8697965
vn -0.4348983 -0.2330615 0.8697965
vn -0.4348983 -0.2330615 0.8697965
vn -0.4348983 0.2330612 0.8697965
vn -0.4348983 0.2330612 0.8697965
vn -0.4348983 0.2330612 0.8697965
vn -0.4348983 0.6367351 0.6367353
vn -0.4348983 0.6367351 0.6367353
vn -0.4348983 0.6367351 0.6367353
vn -0.4348984 0.8697964 0.2330614
vn -0.4348984 0.8697964 0.2330614
vn -0.4348984 0.8697964 0.2330614
vn -0.4348983 0.8697965 -0.2330613
vn -0.4348983 0.8697965 -0.2330613
vn -0.4348983 0.8697965 -0.2330613
vn -0.4348983 0.6367352 -0.6367352
vn -0.4348983 0.6367352 -0.6367352
vn -0.4348983 0.6367352 -0.6367352
vn -0.4348983 0.2330614 -0.8697965
vn -0.4348983 0.2330614 -0.8697965
vn -0.4348983 0.2330614 -0.8697965
vn -0.4348983 -0.2330612 -0.8697965
vn -0.4348983 -0.2330612 -0.8697965
vn -0.4348983 -0.2330612 -0.8697965
vn -0.4348982 -0.6367352 -0.6367353
vn -0.4348982 -0.6367352 -0.6367353
vn -0.4348982 -0.6367352 -0.6367353
vn -0.4348982 -0.8697965 -0.2330612
vn -0.4348982 -0.8697965 -0.2330612
vn -0.4348982 -0.8697965 -0.2330612
vn 1 1.192093E-07 0
vn 1 1.192093E-07 0
vn 1 1.192093E-07 0
vn 1 1.192093E-07 0
vn 1 1.192093E-07 0
vn 1 1.192093E-07 0
vn 1 1.192093E-07 0
vn 1 1.192093E-07 0
vn 1 1.192093E-07 0
vn 1 1.192093E-07 0
vn 1 1.192093E-07 0
vn 1 1.192093E-07 0
vn 0.9989999 -0.02672748 -0.03584473
vn 0.9989999 -0.02672748 -0.03584473
vn 0.9989999 -0.02672748 -0.03584473
vn 0.9989999 -0.02672748 -0.03584473
vn -0.9989999 0.02672761 0.03584474
vn -0.9989999 0.02672761 0.03584474
vn -0.9989999 0.02672761 0.03584474
vn -0.9989999 0.02672761 0.03584474
vn -0.02431861 -0.9975211 0.06603232
vn -0.02431861 -0.9975211 0.06603232
vn -0.02431861 -0.9975211 0.06603232
vn -0.02431861 -0.9975211 0.06603232
vn 0.02431858 0.9975211 -0.0660324
vn 0.02431858 0.9975211 -0.0660324
vn 0.02431858 0.9975211 -0.0660324
vn 0.02431858 0.9975211 -0.0660324
vn -0.03752092 -0.06509433 -0.9971734
vn -0.03752092 -0.06509433 -0.9971734
vn -0.03752092 -0.06509433 -0.9971734
vn -0.03752092 -0.06509433 -0.9971734
vn 0.03752095 0.0650944 0.9971734
vn 0.03752095 0.0650944 0.9971734
vn 0.03752095 0.0650944 0.9971734
vn 0.03752095 0.0650944 0.9971734


usemtl green
usemap green
f 2/2/2 1/1/1 3/3/3
f 5/5/5 4/4/4 6/6/6
f 8/8/8 7/7/7 9/9/9
f 11/11/11 10/10/10 12/12/12
f 14/14/14 13/13/13 15/15/15
f 17/17/17 16/16/16 18/18/18
f 20/20/20 19/19/19 21/21/21
f 23/23/23 22/22/22 24/24/24
f 26/26/26 25/25/25 27/27/27
f 29/29/29 28/28/28 30/30/30
f 32/32/32 31/31/31 33/33/33
f 35/35/35 34/34/34 36/36/36
f 38/38/38 37/37/37 39/39/39
f 40/40/40 39/39/39 37/37/37
f 41/41/41 39/39/39 40/40/40
f 42/42/42 41/41/41 40/40/40
f 43/43/43 41/41/41 42/42/42
f 44/44/44 43/43/43 42/42/42
f 45/45/45 43/43/43 44/44/44
f 46/46/46 45/45/45 44/44/44
f 47/47/47 45/45/45 46/46/46
f 48/48/48 47/47/47 46/46/46
f 50/50/50 49/49/49 51/51/51
f 51/51/51 49/49/49 52/52/52
f 54/54/54 53/53/53 55/55/55
f 55/55/55 53/53/53 56/56/56
f 58/58/58 57/57/57 59/59/59
f 59/59/59 57/57/57 60/60/60
f 62/62/62 61/61/61 63/63/63
f 63/63/63 61/61/61 64/64/64
f 66/66/66 65/65/65 67/67/67
f 67/67/67 65/65/65 68/68/68
f 70/70/70 69/69/69 71/71/71
f 71/71/71 69/69/69 72/72/72
